{
	"asset":{
		"generator":"Khronos glTF Blender I/O v3.6.27",
		"version":"2.0"
	},
	"scene":0,
	"scenes":[
		{
			"name":"Scene",
			"nodes":[
				0
			]
		}
	],
	"nodes":[
		{
			"mesh":0,
			"name":"elevador",
			"translation":[
				8.009597778320312,
				6.451508522033691,
				10.28889274597168
			]
		}
	],
	"materials":[
		{
			"doubleSided":true,
			"name":"caixa02",
			"pbrMetallicRoughness":{
				"baseColorFactor":[
					0.5499994158744812,
					0.05547143146395683,
					0.05547143146395683,
					1
				],
				"metallicFactor":0.1796875,
				"roughnessFactor":0.5
			}
		},
		{
			"doubleSided":true,
			"name":"tuboX",
			"pbrMetallicRoughness":{
				"baseColorFactor":[
					0.8852177858352661,
					0.8852177858352661,
					0.8852177858352661,
					1
				],
				"metallicFactor":0.3828125,
				"roughnessFactor":0.5
			}
		},
		{
			"doubleSided":true,
			"name":"elevador",
			"pbrMetallicRoughness":{
				"baseColorFactor":[
					0.46778395771980286,
					0.11697071045637131,
					0.14126332104206085,
					1
				],
				"metallicFactor":0.34375,
				"roughnessFactor":0.96875
			}
		}
	],
	"meshes":[
		{
			"name":"Plane",
			"primitives":[
				{
					"attributes":{
						"POSITION":0,
						"NORMAL":1,
						"TEXCOORD_0":2
					},
					"indices":3,
					"material":0
				},
				{
					"attributes":{
						"POSITION":4,
						"NORMAL":5,
						"TEXCOORD_0":6
					},
					"indices":7,
					"material":1
				},
				{
					"attributes":{
						"POSITION":8,
						"NORMAL":9,
						"TEXCOORD_0":10
					},
					"indices":11,
					"material":2
				}
			]
		}
	],
	"accessors":[
		{
			"bufferView":0,
			"componentType":5126,
			"count":377,
			"max":[
				2.03475022315979,
				0,
				2.03475022315979
			],
			"min":[
				-2.03475022315979,
				-6.687901496887207,
				-2.03475022315979
			],
			"type":"VEC3"
		},
		{
			"bufferView":1,
			"componentType":5126,
			"count":377,
			"type":"VEC3"
		},
		{
			"bufferView":2,
			"componentType":5126,
			"count":377,
			"type":"VEC2"
		},
		{
			"bufferView":3,
			"componentType":5123,
			"count":1746,
			"type":"SCALAR"
		},
		{
			"bufferView":4,
			"componentType":5126,
			"count":19,
			"max":[
				1.8273836374282837,
				-0.09212002158164978,
				1.8273836374282837
			],
			"min":[
				-1.8273836374282837,
				-0.09212002158164978,
				-1.8273836374282837
			],
			"type":"VEC3"
		},
		{
			"bufferView":5,
			"componentType":5126,
			"count":19,
			"type":"VEC3"
		},
		{
			"bufferView":6,
			"componentType":5126,
			"count":19,
			"type":"VEC2"
		},
		{
			"bufferView":7,
			"componentType":5123,
			"count":27,
			"type":"SCALAR"
		},
		{
			"bufferView":8,
			"componentType":5126,
			"count":19,
			"max":[
				1.8273836374282837,
				-0.09212002158164978,
				1.8273836374282837
			],
			"min":[
				-1.8273836374282837,
				-0.09212002158164978,
				-1.8273836374282837
			],
			"type":"VEC3"
		},
		{
			"bufferView":9,
			"componentType":5126,
			"count":19,
			"type":"VEC3"
		},
		{
			"bufferView":10,
			"componentType":5126,
			"count":19,
			"type":"VEC2"
		},
		{
			"bufferView":11,
			"componentType":5123,
			"count":27,
			"type":"SCALAR"
		}
	],
	"bufferViews":[
		{
			"buffer":0,
			"byteLength":4524,
			"byteOffset":0,
			"target":34962
		},
		{
			"buffer":0,
			"byteLength":4524,
			"byteOffset":4524,
			"target":34962
		},
		{
			"buffer":0,
			"byteLength":3016,
			"byteOffset":9048,
			"target":34962
		},
		{
			"buffer":0,
			"byteLength":3492,
			"byteOffset":12064,
			"target":34963
		},
		{
			"buffer":0,
			"byteLength":228,
			"byteOffset":15556,
			"target":34962
		},
		{
			"buffer":0,
			"byteLength":228,
			"byteOffset":15784,
			"target":34962
		},
		{
			"buffer":0,
			"byteLength":152,
			"byteOffset":16012,
			"target":34962
		},
		{
			"buffer":0,
			"byteLength":54,
			"byteOffset":16164,
			"target":34963
		},
		{
			"buffer":0,
			"byteLength":228,
			"byteOffset":16220,
			"target":34962
		},
		{
			"buffer":0,
			"byteLength":228,
			"byteOffset":16448,
			"target":34962
		},
		{
			"buffer":0,
			"byteLength":152,
			"byteOffset":16676,
			"target":34962
		},
		{
			"buffer":0,
			"byteLength":54,
			"byteOffset":16828,
			"target":34963
		}
	],
	"buffers":[
		{
			"byteLength":16884,
			"uri":"data:application/octet-stream;base64,"
		}
	]
}
