{
	"asset":{
		"generator":"Khronos glTF Blender I/O v3.6.27",
		"version":"2.0"
	},
	"extensionsUsed":[
		"KHR_materials_specular",
		"KHR_materials_ior"
	],
	"scene":0,
	"scenes":[
		{
			"name":"Scene",
			"nodes":[
				0,
				1
			]
		}
	],
	"nodes":[
		{
			"mesh":0,
			"name":"parede.005",
			"translation":[
				8.802396774291992,
				-0.22512269020080566,
				-0.03920084238052368
			]
		},
		{
			"mesh":1,
			"name":"parede.006",
			"translation":[
				3.2740612030029297,
				-0.22512269020080566,
				-0.03920084238052368
			]
		}
	],
	"materials":[
		{
			"doubleSided":true,
			"extensions":{
				"KHR_materials_specular":{
					"specularColorFactor":[
						0,
						0,
						0
					]
				},
				"KHR_materials_ior":{
					"ior":1.4500000476837158
				}
			},
			"name":"parede01",
			"pbrMetallicRoughness":{
				"baseColorFactor":[
					0.47931942343711853,
					0.4396565556526184,
					0.7991028428077698,
					1
				],
				"metallicFactor":0,
				"roughnessFactor":0.5
			}
		},
		{
			"doubleSided":true,
			"name":"parede02",
			"pbrMetallicRoughness":{
				"baseColorFactor":[
					0.06778967380523682,
					0.0553629994392395,
					0.15624570846557617,
					1
				],
				"metallicFactor":0,
				"roughnessFactor":0.5
			}
		}
	],
	"meshes":[
		{
			"name":"Cube.004",
			"primitives":[
				{
					"attributes":{
						"POSITION":0,
						"NORMAL":1,
						"TEXCOORD_0":2
					},
					"indices":3,
					"material":0
				},
				{
					"attributes":{
						"POSITION":4,
						"NORMAL":5,
						"TEXCOORD_0":6
					},
					"indices":7,
					"material":1
				}
			]
		},
		{
			"name":"Cube.019",
			"primitives":[
				{
					"attributes":{
						"POSITION":8,
						"NORMAL":9,
						"TEXCOORD_0":10
					},
					"indices":11,
					"material":0
				},
				{
					"attributes":{
						"POSITION":12,
						"NORMAL":13,
						"TEXCOORD_0":14
					},
					"indices":7,
					"material":1
				}
			]
		}
	],
	"accessors":[
		{
			"bufferView":0,
			"componentType":5126,
			"count":12,
			"max":[
				-0.22354459762573242,
				6.310276985168457,
				1.1245989799499512
			],
			"min":[
				-5.7518792152404785,
				2.384185791015625e-07,
				-0.06707005202770233
			],
			"type":"VEC3"
		},
		{
			"bufferView":1,
			"componentType":5126,
			"count":12,
			"type":"VEC3"
		},
		{
			"bufferView":2,
			"componentType":5126,
			"count":12,
			"type":"VEC2"
		},
		{
			"bufferView":3,
			"componentType":5123,
			"count":24,
			"type":"SCALAR"
		},
		{
			"bufferView":4,
			"componentType":5126,
			"count":60,
			"max":[
				-0.2235441654920578,
				6.676630973815918,
				1.3224831819534302
			],
			"min":[
				-5.751879692077637,
				6.295790672302246,
				-0.26495397090911865
			],
			"type":"VEC3"
		},
		{
			"bufferView":5,
			"componentType":5126,
			"count":60,
			"type":"VEC3"
		},
		{
			"bufferView":6,
			"componentType":5126,
			"count":60,
			"type":"VEC2"
		},
		{
			"bufferView":7,
			"componentType":5123,
			"count":150,
			"type":"SCALAR"
		},
		{
			"bufferView":8,
			"componentType":5126,
			"count":162,
			"max":[
				-0.22354459762573242,
				6.310276985168457,
				1.1245989799499512
			],
			"min":[
				-5.7518792152404785,
				2.384185791015625e-07,
				-0.06707005202770233
			],
			"type":"VEC3"
		},
		{
			"bufferView":9,
			"componentType":5126,
			"count":162,
			"type":"VEC3"
		},
		{
			"bufferView":10,
			"componentType":5126,
			"count":162,
			"type":"VEC2"
		},
		{
			"bufferView":11,
			"componentType":5123,
			"count":642,
			"type":"SCALAR"
		},
		{
			"bufferView":12,
			"componentType":5126,
			"count":60,
			"max":[
				-0.2235441654920578,
				6.676630973815918,
				1.3224831819534302
			],
			"min":[
				-5.751879692077637,
				6.295790672302246,
				-0.26495397090911865
			],
			"type":"VEC3"
		},
		{
			"bufferView":13,
			"componentType":5126,
			"count":60,
			"type":"VEC3"
		},
		{
			"bufferView":14,
			"componentType":5126,
			"count":60,
			"type":"VEC2"
		}
	],
	"bufferViews":[
		{
			"buffer":0,
			"byteLength":144,
			"byteOffset":0,
			"target":34962
		},
		{
			"buffer":0,
			"byteLength":144,
			"byteOffset":144,
			"target":34962
		},
		{
			"buffer":0,
			"byteLength":96,
			"byteOffset":288,
			"target":34962
		},
		{
			"buffer":0,
			"byteLength":48,
			"byteOffset":384,
			"target":34963
		},
		{
			"buffer":0,
			"byteLength":720,
			"byteOffset":432,
			"target":34962
		},
		{
			"buffer":0,
			"byteLength":720,
			"byteOffset":1152,
			"target":34962
		},
		{
			"buffer":0,
			"byteLength":480,
			"byteOffset":1872,
			"target":34962
		},
		{
			"buffer":0,
			"byteLength":300,
			"byteOffset":2352,
			"target":34963
		},
		{
			"buffer":0,
			"byteLength":1944,
			"byteOffset":2652,
			"target":34962
		},
		{
			"buffer":0,
			"byteLength":1944,
			"byteOffset":4596,
			"target":34962
		},
		{
			"buffer":0,
			"byteLength":1296,
			"byteOffset":6540,
			"target":34962
		},
		{
			"buffer":0,
			"byteLength":1284,
			"byteOffset":7836,
			"target":34963
		},
		{
			"buffer":0,
			"byteLength":720,
			"byteOffset":9120,
			"target":34962
		},
		{
			"buffer":0,
			"byteLength":720,
			"byteOffset":9840,
			"target":34962
		},
		{
			"buffer":0,
			"byteLength":480,
			"byteOffset":10560,
			"target":34962
		}
	],
	"buffers":[
		{
			"byteLength":11040,
			"uri":"data:application/octet-stream;base64,"
		}
	]
}
